<?xml version="1.0" encoding="UTF-8"?>
<svg viewBox="0 0 597.4454 145.5195" xmlns="http://www.w3.org/2000/svg">
  <defs>
    <clipPath id="7e7b428f9e">
      <path d="M 125.019531 4.730469 L 136.152344 4.730469 L 136.152344 145.453125 L 125.019531 145.453125 Z M 125.019531 4.730469 " clip-rule="nonzero"/>
    </clipPath>
    <clipPath id="78111ef395">
      <path d="M 1.847656 10.460938 L 115.539062 10.460938 L 115.539062 145.617188 L 1.847656 145.617188 Z M 1.847656 10.460938 " clip-rule="nonzero"/>
    </clipPath>
  </defs>
  <g clip-path="url(#7e7b428f9e)">
    <path d="M 125.0625 145.453125 L 125.0625 4.730469 L 136.109375 4.730469 L 136.109375 145.453125 Z M 125.0625 145.453125 " fill-opacity="1" fill-rule="nonzero" style="fill: rgb(250, 250, 250);"/>
  </g>
  <g fill="#000000" fill-opacity="1">
    <g transform="translate(135.943387, 101.548634)">
      <g>
        <path d="M 34.8125 -34.671875 C 36.132812 -34.671875 37.503906 -34.390625 38.921875 -33.828125 C 40.335938 -33.273438 41.703125 -32.546875 43.015625 -31.640625 L 42.9375 -31.640625 C 44.25 -30.722656 45.257812 -29.476562 45.96875 -27.90625 C 46.675781 -26.34375 47.03125 -24.550781 47.03125 -22.53125 L 47.03125 -12.140625 C 47.03125 -8.046875 45.664062 -4.984375 42.9375 -2.953125 C 41.625 -1.992188 40.269531 -1.25 38.875 -0.71875 C 37.488281 -0.1875 36.132812 0.078125 34.8125 0.078125 L 18.28125 0.078125 C 16.96875 0.078125 15.613281 -0.1875 14.21875 -0.71875 C 12.832031 -1.25 11.484375 -1.992188 10.171875 -2.953125 C 7.429688 -4.984375 6.0625 -8.046875 6.0625 -12.140625 L 6.0625 -17.140625 C 6.0625 -19.515625 7.554688 -20.703125 10.546875 -20.703125 C 13.578125 -20.703125 15.09375 -19.515625 15.09375 -17.140625 L 15.09375 -12.75 C 15.09375 -11.425781 15.472656 -10.234375 16.234375 -9.171875 C 16.992188 -8.109375 18.304688 -7.578125 20.171875 -7.578125 L 32.921875 -7.578125 C 34.796875 -7.578125 36.109375 -8.109375 36.859375 -9.171875 C 37.617188 -10.234375 38 -11.425781 38 -12.75 L 38 -21.921875 C 38 -23.179688 37.617188 -24.351562 36.859375 -25.4375 C 36.109375 -26.53125 34.796875 -27.078125 32.921875 -27.078125 L 18.28125 -27.078125 C 15.65625 -27.078125 12.953125 -28.039062 10.171875 -29.96875 C 7.429688 -32.09375 6.0625 -35.148438 6.0625 -39.140625 L 6.0625 -48.171875 C 6.0625 -50.191406 6.414062 -51.972656 7.125 -53.515625 C 7.832031 -55.054688 8.847656 -56.3125 10.171875 -57.28125 L 10.09375 -57.28125 C 11.40625 -58.132812 12.769531 -58.835938 14.1875 -59.390625 C 15.601562 -59.953125 16.96875 -60.234375 18.28125 -60.234375 L 34.8125 -60.234375 C 36.132812 -60.234375 37.503906 -59.953125 38.921875 -59.390625 C 40.335938 -58.835938 41.703125 -58.132812 43.015625 -57.28125 L 42.9375 -57.28125 C 44.25 -56.3125 45.257812 -55.054688 45.96875 -53.515625 C 46.675781 -51.972656 47.03125 -50.191406 47.03125 -48.171875 L 47.03125 -43.6875 C 47.03125 -41.3125 45.515625 -40.125 42.484375 -40.125 C 39.492188 -40.125 38 -41.3125 38 -43.6875 L 38 -47.484375 C 38 -48.753906 37.617188 -49.921875 36.859375 -50.984375 C 36.109375 -52.046875 34.796875 -52.578125 32.921875 -52.578125 L 20.171875 -52.578125 C 18.304688 -52.578125 16.992188 -52.046875 16.234375 -50.984375 C 15.472656 -49.921875 15.09375 -48.753906 15.09375 -47.484375 L 15.09375 -39.75 C 15.09375 -38.4375 15.472656 -37.257812 16.234375 -36.21875 C 16.992188 -35.1875 18.304688 -34.671875 20.171875 -34.671875 Z M 34.8125 -34.671875 " style="fill: rgb(250, 250, 250);"/>
      </g>
    </g>
  </g>
  <g fill="#000000" fill-opacity="1">
    <g transform="translate(188.813045, 101.548634)">
      <g>
        <path d="M 41.875 -12.0625 C 41.875 -7.914062 40.507812 -4.851562 37.78125 -2.875 C 35.09375 -0.957031 32.410156 0 29.734375 0 L 17 0 C 14.3125 0 11.703125 -0.957031 9.171875 -2.875 C 7.960938 -3.894531 7.03125 -5.175781 6.375 -6.71875 C 5.71875 -8.257812 5.390625 -10.039062 5.390625 -12.0625 L 5.390625 -33.6875 C 5.390625 -37.78125 6.648438 -40.8125 9.171875 -42.78125 C 10.441406 -43.695312 11.742188 -44.421875 13.078125 -44.953125 C 14.421875 -45.484375 15.726562 -45.75 17 -45.75 L 29.734375 -45.75 C 30.953125 -45.75 32.289062 -45.503906 33.75 -45.015625 C 35.21875 -44.535156 36.585938 -43.894531 37.859375 -43.09375 C 39.066406 -42.226562 40.035156 -41.035156 40.765625 -39.515625 C 41.503906 -38.003906 41.875 -36.210938 41.875 -34.140625 L 41.875 -30.34375 C 41.875 -27.914062 40.484375 -26.703125 37.703125 -26.703125 C 34.921875 -26.703125 33.53125 -27.914062 33.53125 -30.34375 L 33.53125 -33.609375 C 33.53125 -34.867188 33.132812 -36.015625 32.34375 -37.046875 C 31.5625 -38.085938 30.238281 -38.609375 28.375 -38.609375 L 18.890625 -38.609375 C 17.015625 -38.609375 15.6875 -38.085938 14.90625 -37.046875 C 14.125 -36.015625 13.734375 -34.867188 13.734375 -33.609375 L 13.734375 -12.140625 C 13.734375 -10.921875 14.125 -9.78125 14.90625 -8.71875 C 15.6875 -7.65625 17.015625 -7.125 18.890625 -7.125 L 28.375 -7.125 C 30.238281 -7.125 31.5625 -7.65625 32.34375 -8.71875 C 33.132812 -9.78125 33.53125 -10.921875 33.53125 -12.140625 L 33.53125 -15.625 C 33.53125 -18 34.921875 -19.1875 37.703125 -19.1875 C 40.484375 -19.1875 41.875 -18 41.875 -15.625 Z M 41.875 -12.0625 " style="fill: rgb(250, 250, 250);"/>
      </g>
    </g>
  </g>
  <g fill="#000000" fill-opacity="1">
    <g transform="translate(234.780061, 101.548634)">
      <g>
        <path d="M 16.84375 0 C 15.269531 0 13.773438 -0.210938 12.359375 -0.640625 C 10.941406 -1.078125 9.578125 -1.695312 8.265625 -2.5 L 8.265625 -2.421875 C 5.785156 -3.992188 4.546875 -6.878906 4.546875 -11.078125 L 4.546875 -14.796875 C 4.546875 -16.867188 4.910156 -18.675781 5.640625 -20.21875 C 6.378906 -21.757812 7.40625 -22.984375 8.71875 -23.890625 L 8.640625 -23.890625 C 9.910156 -24.753906 11.253906 -25.398438 12.671875 -25.828125 C 14.085938 -26.253906 15.453125 -26.46875 16.765625 -26.46875 L 33.53125 -26.46875 L 33.53125 -33.53125 C 33.53125 -34.789062 33.132812 -35.9375 32.34375 -36.96875 C 31.5625 -38.007812 30.238281 -38.53125 28.375 -38.53125 L 19.5 -38.53125 C 17.570312 -38.53125 16.238281 -38.0625 15.5 -37.125 C 14.769531 -36.195312 14.40625 -35.097656 14.40625 -33.828125 L 14.40625 -33.21875 C 14.40625 -30.59375 12.992188 -29.28125 10.171875 -29.28125 C 7.335938 -29.28125 5.921875 -30.59375 5.921875 -33.21875 L 5.921875 -33.90625 C 5.921875 -35.976562 6.285156 -37.722656 7.015625 -39.140625 C 7.742188 -40.554688 8.742188 -41.742188 10.015625 -42.703125 L 9.9375 -42.703125 C 11.25 -43.566406 12.625 -44.273438 14.0625 -44.828125 C 15.507812 -45.390625 16.890625 -45.671875 18.203125 -45.671875 L 29.734375 -45.671875 C 31.003906 -45.671875 32.359375 -45.390625 33.796875 -44.828125 C 35.234375 -44.273438 36.585938 -43.566406 37.859375 -42.703125 L 37.78125 -42.703125 C 39.09375 -41.742188 40.101562 -40.492188 40.8125 -38.953125 C 41.519531 -37.410156 41.875 -35.628906 41.875 -33.609375 L 41.875 -3.1875 C 41.875 -0.757812 40.484375 0.453125 37.703125 0.453125 C 37.148438 0.453125 36.628906 0.425781 36.140625 0.375 C 35.660156 0.320312 35.226562 0.1875 34.84375 -0.03125 C 34.46875 -0.257812 34.164062 -0.585938 33.9375 -1.015625 C 33.71875 -1.453125 33.609375 -2.023438 33.609375 -2.734375 L 33.53125 -19.34375 L 18.203125 -19.34375 C 17.085938 -19.34375 16.226562 -19.210938 15.625 -18.953125 C 15.019531 -18.703125 14.539062 -18.300781 14.1875 -17.75 C 13.78125 -16.894531 13.488281 -16.222656 13.3125 -15.734375 C 13.132812 -15.253906 13.046875 -14.710938 13.046875 -14.109375 L 13.046875 -11.15625 C 13.046875 -9.832031 13.4375 -8.828125 14.21875 -8.140625 C 15.007812 -7.460938 16.363281 -7.125 18.28125 -7.125 L 26.78125 -7.125 C 28.644531 -7.125 29.578125 -5.9375 29.578125 -3.5625 C 29.578125 -2.550781 29.347656 -1.703125 28.890625 -1.015625 C 28.441406 -0.335938 27.738281 0 26.78125 0 Z M 16.84375 0 " style="fill: rgb(250, 250, 250);"/>
      </g>
    </g>
  </g>
  <g fill="#000000" fill-opacity="1">
    <g transform="translate(281.050498, 101.548634)">
      <g>
        <path d="M 28.90625 -33 C 28.90625 -33.65625 28.800781 -34.296875 28.59375 -34.921875 C 28.394531 -35.554688 28.144531 -36.15625 27.84375 -36.71875 C 27.1875 -37.925781 25.820312 -38.53125 23.75 -38.53125 L 18.890625 -38.53125 C 16.816406 -38.53125 15.425781 -37.925781 14.71875 -36.71875 C 14.113281 -35.550781 13.8125 -34.3125 13.8125 -33 L 13.8125 -2.953125 C 13.8125 -0.578125 12.421875 0.609375 9.640625 0.609375 C 6.753906 0.609375 5.3125 -0.578125 5.3125 -2.953125 L 5.3125 -33.6875 C 5.3125 -37.832031 6.675781 -40.863281 9.40625 -42.78125 C 12.1875 -44.707031 14.894531 -45.671875 17.53125 -45.671875 L 25.1875 -45.671875 C 26.351562 -45.671875 27.640625 -45.441406 29.046875 -44.984375 C 30.460938 -44.523438 31.832031 -43.816406 33.15625 -42.859375 C 34.414062 -43.816406 35.738281 -44.523438 37.125 -44.984375 C 38.519531 -45.441406 39.847656 -45.671875 41.109375 -45.671875 L 48.703125 -45.671875 C 51.378906 -45.671875 54.0625 -44.707031 56.75 -42.78125 C 59.53125 -40.914062 60.921875 -37.882812 60.921875 -33.6875 L 60.921875 -2.953125 C 60.921875 -0.578125 59.503906 0.609375 56.671875 0.609375 C 53.835938 0.609375 52.421875 -0.578125 52.421875 -2.953125 L 52.421875 -33 C 52.421875 -33.65625 52.34375 -34.3125 52.1875 -34.96875 C 52.039062 -35.625 51.765625 -36.234375 51.359375 -36.796875 L 51.4375 -36.71875 C 51.03125 -37.375 50.519531 -37.835938 49.90625 -38.109375 C 49.300781 -38.390625 48.421875 -38.53125 47.265625 -38.53125 L 42.484375 -38.53125 C 40.359375 -38.53125 38.96875 -37.925781 38.3125 -36.71875 C 37.65625 -35.601562 37.328125 -34.363281 37.328125 -33 L 37.328125 -2.953125 C 37.328125 -0.578125 35.9375 0.609375 33.15625 0.609375 C 30.320312 0.609375 28.90625 -0.578125 28.90625 -2.953125 Z M 28.90625 -33 " style="fill: rgb(250, 250, 250);"/>
      </g>
    </g>
  </g>
  <g fill="#000000" fill-opacity="1">
    <g transform="translate(345.829113, 101.548634)">
      <g>
        <path d="M 28.90625 -33 C 28.90625 -33.65625 28.800781 -34.296875 28.59375 -34.921875 C 28.394531 -35.554688 28.144531 -36.15625 27.84375 -36.71875 C 27.1875 -37.925781 25.820312 -38.53125 23.75 -38.53125 L 18.890625 -38.53125 C 16.816406 -38.53125 15.425781 -37.925781 14.71875 -36.71875 C 14.113281 -35.550781 13.8125 -34.3125 13.8125 -33 L 13.8125 -2.953125 C 13.8125 -0.578125 12.421875 0.609375 9.640625 0.609375 C 6.753906 0.609375 5.3125 -0.578125 5.3125 -2.953125 L 5.3125 -33.6875 C 5.3125 -37.832031 6.675781 -40.863281 9.40625 -42.78125 C 12.1875 -44.707031 14.894531 -45.671875 17.53125 -45.671875 L 25.1875 -45.671875 C 26.351562 -45.671875 27.640625 -45.441406 29.046875 -44.984375 C 30.460938 -44.523438 31.832031 -43.816406 33.15625 -42.859375 C 34.414062 -43.816406 35.738281 -44.523438 37.125 -44.984375 C 38.519531 -45.441406 39.847656 -45.671875 41.109375 -45.671875 L 48.703125 -45.671875 C 51.378906 -45.671875 54.0625 -44.707031 56.75 -42.78125 C 59.53125 -40.914062 60.921875 -37.882812 60.921875 -33.6875 L 60.921875 -2.953125 C 60.921875 -0.578125 59.503906 0.609375 56.671875 0.609375 C 53.835938 0.609375 52.421875 -0.578125 52.421875 -2.953125 L 52.421875 -33 C 52.421875 -33.65625 52.34375 -34.3125 52.1875 -34.96875 C 52.039062 -35.625 51.765625 -36.234375 51.359375 -36.796875 L 51.4375 -36.71875 C 51.03125 -37.375 50.519531 -37.835938 49.90625 -38.109375 C 49.300781 -38.390625 48.421875 -38.53125 47.265625 -38.53125 L 42.484375 -38.53125 C 40.359375 -38.53125 38.96875 -37.925781 38.3125 -36.71875 C 37.65625 -35.601562 37.328125 -34.363281 37.328125 -33 L 37.328125 -2.953125 C 37.328125 -0.578125 35.9375 0.609375 33.15625 0.609375 C 30.320312 0.609375 28.90625 -0.578125 28.90625 -2.953125 Z M 28.90625 -33 " style="fill: rgb(250, 250, 250);"/>
      </g>
    </g>
  </g>
  <g fill="#000000" fill-opacity="1">
    <g transform="translate(410.607729, 101.548634)">
      <g>
        <path d="M 13.953125 -3.1875 C 13.953125 -0.757812 12.5625 0.453125 9.78125 0.453125 C 6.945312 0.453125 5.53125 -0.757812 5.53125 -3.1875 L 5.53125 -42.328125 C 5.53125 -44.753906 6.945312 -45.96875 9.78125 -45.96875 C 12.5625 -45.96875 13.953125 -44.753906 13.953125 -42.328125 Z M 15.546875 -55.53125 C 15.546875 -53.90625 14.988281 -52.535156 13.875 -51.421875 C 12.769531 -50.316406 11.40625 -49.765625 9.78125 -49.765625 C 8.164062 -49.765625 6.785156 -50.316406 5.640625 -51.421875 C 4.503906 -52.535156 3.9375 -53.90625 3.9375 -55.53125 C 3.9375 -57.195312 4.503906 -58.585938 5.640625 -59.703125 C 6.785156 -60.816406 8.164062 -61.375 9.78125 -61.375 C 11.40625 -61.375 12.769531 -60.816406 13.875 -59.703125 C 14.988281 -58.585938 15.546875 -57.195312 15.546875 -55.53125 Z M 15.546875 -55.53125 " style="fill: rgb(250, 250, 250);"/>
      </g>
    </g>
  </g>
  <g fill="#000000" fill-opacity="1">
    <g transform="translate(429.72272, 101.548634)">
      <g>
        <path d="M 13.734375 -3.1875 C 13.734375 -0.757812 12.34375 0.453125 9.5625 0.453125 C 6.78125 0.453125 5.390625 -0.757812 5.390625 -3.1875 L 5.390625 -33.6875 C 5.390625 -35.757812 5.71875 -37.550781 6.375 -39.0625 C 7.03125 -40.582031 8.066406 -41.820312 9.484375 -42.78125 C 12.160156 -44.707031 14.84375 -45.671875 17.53125 -45.671875 L 29.734375 -45.671875 C 32.316406 -45.671875 35 -44.707031 37.78125 -42.78125 C 40.507812 -40.863281 41.875 -37.832031 41.875 -33.6875 L 41.875 -3.1875 C 41.875 -0.757812 40.484375 0.453125 37.703125 0.453125 C 34.921875 0.453125 33.53125 -0.757812 33.53125 -3.1875 L 33.53125 -33 C 33.53125 -34.3125 33.125 -35.578125 32.3125 -36.796875 L 32.390625 -36.71875 C 31.734375 -37.925781 30.394531 -38.53125 28.375 -38.53125 L 18.890625 -38.53125 C 16.816406 -38.53125 15.453125 -37.925781 14.796875 -36.71875 C 14.085938 -35.65625 13.734375 -34.414062 13.734375 -33 Z M 13.734375 -3.1875 " style="fill: rgb(250, 250, 250);"/>
      </g>
    </g>
  </g>
  <g fill="#000000" fill-opacity="1">
    <g transform="translate(475.993156, 101.548634)">
      <g>
        <path d="M 33.53125 -38.53125 L 18.890625 -38.53125 C 16.816406 -38.53125 15.453125 -37.925781 14.796875 -36.71875 C 14.085938 -35.65625 13.734375 -34.414062 13.734375 -33 L 13.734375 -11.15625 C 13.734375 -9.832031 14.132812 -8.828125 14.9375 -8.140625 C 15.75 -7.460938 17.09375 -7.125 18.96875 -7.125 L 26.78125 -7.125 C 28.601562 -7.125 29.515625 -5.9375 29.515625 -3.5625 C 29.515625 -2.550781 29.296875 -1.703125 28.859375 -1.015625 C 28.429688 -0.335938 27.738281 0 26.78125 0 L 17.59375 0 C 14.40625 0 11.578125 -0.804688 9.109375 -2.421875 C 6.628906 -3.941406 5.390625 -6.828125 5.390625 -11.078125 L 5.390625 -33.6875 C 5.390625 -35.757812 5.71875 -37.550781 6.375 -39.0625 C 7.03125 -40.582031 8.066406 -41.820312 9.484375 -42.78125 C 12.160156 -44.707031 14.84375 -45.671875 17.53125 -45.671875 L 33.53125 -45.671875 L 33.53125 -57.046875 C 33.53125 -59.472656 34.921875 -60.6875 37.703125 -60.6875 C 40.484375 -60.6875 41.875 -59.472656 41.875 -57.046875 L 41.875 -3.1875 C 41.875 -0.757812 40.484375 0.453125 37.703125 0.453125 C 36.640625 0.453125 35.675781 0.265625 34.8125 -0.109375 C 33.957031 -0.492188 33.53125 -1.34375 33.53125 -2.65625 Z M 33.53125 -38.53125 " style="fill: rgb(250, 250, 250);"/>
      </g>
    </g>
  </g>
  <g fill="#000000" fill-opacity="1">
    <g transform="translate(147.578362, 130.241179)">
      <g>
        <path d="M 9.5 -19.28125 L 3.4375 -0.671875 L 3.4375 -0.6875 C 3.320312 -0.414062 3.164062 -0.191406 2.96875 -0.015625 C 2.78125 0.160156 2.546875 0.25 2.265625 0.25 C 2.117188 0.25 1.976562 0.234375 1.84375 0.203125 C 1.707031 0.179688 1.5625 0.148438 1.40625 0.109375 L 1.4375 0.109375 C 0.382812 -0.222656 0 -0.8125 0.28125 -1.65625 L 6.59375 -20.859375 C 6.6875 -21.148438 6.847656 -21.394531 7.078125 -21.59375 C 7.304688 -21.800781 7.578125 -21.925781 7.890625 -21.96875 C 8.203125 -22.019531 8.503906 -22.0625 8.796875 -22.09375 C 9.097656 -22.125 9.332031 -22.140625 9.5 -22.140625 C 9.664062 -22.140625 9.894531 -22.125 10.1875 -22.09375 C 10.488281 -22.0625 10.796875 -22.03125 11.109375 -22 C 11.367188 -21.957031 11.625 -21.816406 11.875 -21.578125 C 12.125 -21.335938 12.3125 -21.097656 12.4375 -20.859375 C 13.46875 -17.679688 14.515625 -14.476562 15.578125 -11.25 C 16.640625 -8.03125 17.691406 -4.832031 18.734375 -1.65625 C 18.984375 -0.8125 18.59375 -0.222656 17.5625 0.109375 C 17.414062 0.148438 17.28125 0.179688 17.15625 0.203125 C 17.039062 0.234375 16.910156 0.25 16.765625 0.25 C 16.503906 0.25 16.265625 0.160156 16.046875 -0.015625 C 15.835938 -0.191406 15.6875 -0.414062 15.59375 -0.6875 L 15.59375 -0.671875 Z M 11.578125 -6.65625 C 11.578125 -6.0625 11.367188 -5.554688 10.953125 -5.140625 C 10.535156 -4.722656 10.035156 -4.515625 9.453125 -4.515625 C 8.859375 -4.515625 8.359375 -4.722656 7.953125 -5.140625 C 7.546875 -5.554688 7.34375 -6.0625 7.34375 -6.65625 C 7.34375 -7.238281 7.546875 -7.738281 7.953125 -8.15625 C 8.359375 -8.570312 8.859375 -8.78125 9.453125 -8.78125 C 10.035156 -8.78125 10.535156 -8.570312 10.953125 -8.15625 C 11.367188 -7.738281 11.578125 -7.238281 11.578125 -6.65625 Z M 11.578125 -6.65625 " style="fill: rgb(250, 250, 250);"/>
      </g>
    </g>
  </g>
  <g fill="#000000" fill-opacity="1">
    <g transform="translate(166.58317, 130.241179)">
      <g>
        <path d="M 5.625 -1.15625 C 5.625 -0.269531 5.070312 0.171875 3.96875 0.171875 C 2.875 0.171875 2.328125 -0.269531 2.328125 -1.15625 L 2.328125 -20.8125 C 2.328125 -21.695312 2.875 -22.140625 3.96875 -22.140625 C 5.070312 -22.140625 5.625 -21.695312 5.625 -20.8125 Z M 5.625 -1.15625 " style="fill: rgb(250, 250, 250);"/>
      </g>
    </g>
  </g>
  <g fill="#000000" fill-opacity="1">
    <g transform="translate(174.423346, 130.241179)">
      <g>
        <path d="M 1.859375 -9.5625 C 1.003906 -9.5625 0.578125 -10.019531 0.578125 -10.9375 C 0.597656 -11.414062 0.71875 -11.769531 0.9375 -12 C 1.164062 -12.238281 1.472656 -12.359375 1.859375 -12.359375 L 7.453125 -12.359375 C 8.285156 -12.359375 8.703125 -11.882812 8.703125 -10.9375 C 8.734375 -10.019531 8.316406 -9.5625 7.453125 -9.5625 Z M 1.859375 -9.5625 " style="fill: rgb(250, 250, 250);"/>
      </g>
    </g>
  </g>
  <g fill="#000000" fill-opacity="1">
    <g transform="translate(183.676414, 130.241179)">
      <g>
        <path d="M 8.234375 -8.140625 C 7.910156 -8.140625 7.660156 -8.265625 7.484375 -8.515625 C 7.316406 -8.765625 7.234375 -9.101562 7.234375 -9.53125 C 7.234375 -10.46875 7.617188 -10.9375 8.390625 -10.9375 L 11.328125 -10.9375 C 12.015625 -10.9375 12.5 -11.128906 12.78125 -11.515625 C 13.070312 -11.910156 13.21875 -12.335938 13.21875 -12.796875 L 13.21875 -17.34375 C 13.21875 -17.800781 13.070312 -18.222656 12.78125 -18.609375 C 12.5 -19.003906 12.015625 -19.203125 11.328125 -19.203125 L 5.515625 -19.203125 L 5.515625 -1.109375 C 5.515625 -0.222656 4.957031 0.21875 3.84375 0.21875 C 2.78125 0.21875 2.25 -0.222656 2.25 -1.109375 L 2.25 -20.328125 C 2.25 -20.992188 2.410156 -21.4375 2.734375 -21.65625 C 3.066406 -21.882812 3.476562 -22 3.96875 -22 L 12.046875 -22 C 12.515625 -22 13.003906 -21.894531 13.515625 -21.6875 C 14.035156 -21.488281 14.535156 -21.234375 15.015625 -20.921875 L 14.984375 -20.921875 C 15.460938 -20.566406 15.832031 -20.109375 16.09375 -19.546875 C 16.351562 -18.984375 16.484375 -18.332031 16.484375 -17.59375 L 16.484375 -12.578125 C 16.484375 -11.078125 15.984375 -9.957031 14.984375 -9.21875 C 14.503906 -8.875 14.015625 -8.609375 13.515625 -8.421875 C 13.015625 -8.234375 12.523438 -8.140625 12.046875 -8.140625 Z M 8.234375 -8.140625 " style="fill: rgb(250, 250, 250);"/>
      </g>
    </g>
  </g>
  <g fill="#000000" fill-opacity="1">
    <g transform="translate(202.154849, 130.241179)">
      <g>
        <path d="M 10.828125 -16.671875 C 11.304688 -16.671875 11.800781 -16.566406 12.3125 -16.359375 C 12.820312 -16.160156 13.316406 -15.90625 13.796875 -15.59375 L 13.765625 -15.59375 C 14.242188 -15.25 14.613281 -14.789062 14.875 -14.21875 C 15.132812 -13.65625 15.265625 -13.003906 15.265625 -12.265625 L 15.265625 -4.40625 C 15.265625 -2.894531 14.765625 -1.773438 13.765625 -1.046875 C 12.785156 -0.347656 11.804688 0 10.828125 0 L 6.40625 0 C 5.914062 0 5.421875 -0.0820312 4.921875 -0.25 C 4.429688 -0.414062 3.945312 -0.679688 3.46875 -1.046875 C 2.46875 -1.753906 1.96875 -2.875 1.96875 -4.40625 L 1.96875 -12.265625 C 1.96875 -13.003906 2.097656 -13.65625 2.359375 -14.21875 C 2.617188 -14.789062 2.988281 -15.25 3.46875 -15.59375 L 3.4375 -15.59375 C 3.894531 -15.90625 4.378906 -16.160156 4.890625 -16.359375 C 5.410156 -16.566406 5.914062 -16.671875 6.40625 -16.671875 Z M 10.328125 -2.609375 C 11.015625 -2.609375 11.5 -2.800781 11.78125 -3.1875 C 12.070312 -3.570312 12.21875 -3.988281 12.21875 -4.4375 L 12.21875 -12.25 C 12.21875 -12.707031 12.070312 -13.125 11.78125 -13.5 C 11.5 -13.882812 11.015625 -14.078125 10.328125 -14.078125 L 6.890625 -14.078125 C 6.210938 -14.078125 5.726562 -13.882812 5.4375 -13.5 C 5.15625 -13.125 5.015625 -12.707031 5.015625 -12.25 L 5.015625 -4.4375 C 5.015625 -3.988281 5.15625 -3.570312 5.4375 -3.1875 C 5.726562 -2.800781 6.210938 -2.609375 6.890625 -2.609375 Z M 10.328125 -2.609375 " style="fill: rgb(250, 250, 250);"/>
      </g>
    </g>
  </g>
  <g fill="#000000" fill-opacity="1">
    <g transform="translate(218.94335, 130.241179)">
      <g>
        <path d="M 7.78125 -0.859375 L 7.8125 -0.890625 C 7.6875 -0.460938 7.4375 -0.179688 7.0625 -0.046875 C 6.695312 0.078125 6.328125 0.140625 5.953125 0.140625 C 5.609375 0.140625 5.242188 0.078125 4.859375 -0.046875 C 4.484375 -0.179688 4.238281 -0.460938 4.125 -0.890625 L 4.15625 -0.859375 L 0.53125 -15.203125 C 0.300781 -15.984375 0.660156 -16.503906 1.609375 -16.765625 C 2.515625 -17.003906 3.097656 -16.6875 3.359375 -15.8125 L 3.359375 -15.84375 L 5.59375 -6.8125 L 6.34375 -6.8125 L 8.59375 -15.84375 C 8.675781 -16.226562 8.878906 -16.476562 9.203125 -16.59375 C 9.535156 -16.71875 9.835938 -16.78125 10.109375 -16.78125 C 10.421875 -16.78125 10.726562 -16.710938 11.03125 -16.578125 C 11.34375 -16.441406 11.550781 -16.195312 11.65625 -15.84375 C 11.820312 -15.175781 11.972656 -14.554688 12.109375 -13.984375 C 12.253906 -13.410156 12.390625 -12.859375 12.515625 -12.328125 C 12.648438 -11.796875 12.773438 -11.269531 12.890625 -10.75 C 13.015625 -10.226562 13.148438 -9.691406 13.296875 -9.140625 L 13.90625 -6.78125 L 14.65625 -6.78125 C 15.019531 -8.28125 15.390625 -9.789062 15.765625 -11.3125 C 16.148438 -12.84375 16.53125 -14.351562 16.90625 -15.84375 L 16.875 -15.8125 C 17.132812 -16.6875 17.710938 -17.003906 18.609375 -16.765625 C 19.554688 -16.535156 19.921875 -16.015625 19.703125 -15.203125 L 16.09375 -0.859375 L 16.125 -0.890625 C 16.007812 -0.460938 15.765625 -0.179688 15.390625 -0.046875 C 15.015625 0.078125 14.640625 0.140625 14.265625 0.140625 C 13.910156 0.140625 13.546875 0.078125 13.171875 -0.046875 C 12.804688 -0.179688 12.5625 -0.460938 12.4375 -0.890625 L 12.46875 -0.859375 L 10.5 -8.640625 L 9.75 -8.640625 Z M 7.78125 -0.859375 " style="fill: rgb(250, 250, 250);"/>
      </g>
    </g>
  </g>
  <g fill="#000000" fill-opacity="1">
    <g transform="translate(238.834677, 130.241179)">
      <g>
        <path d="M 5.015625 -4.4375 C 5.015625 -3.988281 5.15625 -3.570312 5.4375 -3.1875 C 5.726562 -2.800781 6.210938 -2.609375 6.890625 -2.609375 L 10.359375 -2.609375 C 11.046875 -2.609375 11.53125 -2.773438 11.8125 -3.109375 C 12.101562 -3.453125 12.25 -3.847656 12.25 -4.296875 L 12.25 -4.59375 C 12.25 -5.46875 12.753906 -5.90625 13.765625 -5.90625 C 14.785156 -5.90625 15.296875 -5.46875 15.296875 -4.59375 L 15.296875 -4.265625 C 15.296875 -3.492188 15.171875 -2.859375 14.921875 -2.359375 C 14.671875 -1.859375 14.296875 -1.421875 13.796875 -1.046875 C 12.816406 -0.347656 11.835938 0 10.859375 0 L 6.203125 0 C 5.222656 0 4.273438 -0.347656 3.359375 -1.046875 C 2.910156 -1.421875 2.566406 -1.890625 2.328125 -2.453125 C 2.085938 -3.015625 1.96875 -3.664062 1.96875 -4.40625 L 1.96875 -12.296875 C 1.96875 -13.796875 2.429688 -14.90625 3.359375 -15.625 C 3.816406 -15.957031 4.289062 -16.21875 4.78125 -16.40625 C 5.269531 -16.601562 5.742188 -16.703125 6.203125 -16.703125 L 10.859375 -16.703125 C 11.304688 -16.703125 11.796875 -16.613281 12.328125 -16.4375 C 12.859375 -16.257812 13.359375 -16.023438 13.828125 -15.734375 C 14.265625 -15.421875 14.617188 -14.988281 14.890625 -14.4375 C 15.160156 -13.882812 15.296875 -13.226562 15.296875 -12.46875 L 15.296875 -8.71875 C 15.296875 -8.300781 15.171875 -7.925781 14.921875 -7.59375 C 14.671875 -7.257812 14.210938 -7.09375 13.546875 -7.09375 L 7.5625 -7.09375 C 6.894531 -7.09375 6.546875 -7.523438 6.515625 -8.390625 C 6.515625 -9.265625 6.863281 -9.703125 7.5625 -9.703125 L 12.265625 -9.703125 L 12.25 -12.265625 C 12.25 -12.734375 12.101562 -13.15625 11.8125 -13.53125 C 11.53125 -13.90625 11.046875 -14.09375 10.359375 -14.09375 L 6.890625 -14.09375 C 6.210938 -14.09375 5.726562 -13.90625 5.4375 -13.53125 C 5.15625 -13.15625 5.015625 -12.734375 5.015625 -12.265625 Z M 5.015625 -4.4375 " style="fill: rgb(250, 250, 250);"/>
      </g>
    </g>
  </g>
  <g fill="#000000" fill-opacity="1">
    <g transform="translate(255.67859, 130.241179)">
      <g>
        <path d="M 4.953125 -1.15625 C 4.953125 -0.269531 4.445312 0.171875 3.4375 0.171875 C 2.382812 0.171875 1.859375 -0.269531 1.859375 -1.15625 L 1.859375 -12.625 C 1.859375 -14.144531 2.3125 -15.203125 3.21875 -15.796875 C 4.125 -16.378906 5.164062 -16.671875 6.34375 -16.671875 L 9.5 -16.671875 C 10.1875 -16.671875 10.53125 -16.238281 10.53125 -15.375 C 10.5625 -14.507812 10.21875 -14.078125 9.5 -14.078125 L 6.5625 -14.078125 C 5.894531 -14.078125 5.457031 -13.945312 5.25 -13.6875 C 5.050781 -13.425781 4.953125 -13.066406 4.953125 -12.609375 Z M 4.953125 -1.15625 " style="fill: rgb(250, 250, 250);"/>
      </g>
    </g>
  </g>
  <g fill="#000000" fill-opacity="1">
    <g transform="translate(266.593891, 130.241179)">
      <g>
        <path d="M 5.015625 -4.4375 C 5.015625 -3.988281 5.15625 -3.570312 5.4375 -3.1875 C 5.726562 -2.800781 6.210938 -2.609375 6.890625 -2.609375 L 10.359375 -2.609375 C 11.046875 -2.609375 11.53125 -2.773438 11.8125 -3.109375 C 12.101562 -3.453125 12.25 -3.847656 12.25 -4.296875 L 12.25 -4.59375 C 12.25 -5.46875 12.753906 -5.90625 13.765625 -5.90625 C 14.785156 -5.90625 15.296875 -5.46875 15.296875 -4.59375 L 15.296875 -4.265625 C 15.296875 -3.492188 15.171875 -2.859375 14.921875 -2.359375 C 14.671875 -1.859375 14.296875 -1.421875 13.796875 -1.046875 C 12.816406 -0.347656 11.835938 0 10.859375 0 L 6.203125 0 C 5.222656 0 4.273438 -0.347656 3.359375 -1.046875 C 2.910156 -1.421875 2.566406 -1.890625 2.328125 -2.453125 C 2.085938 -3.015625 1.96875 -3.664062 1.96875 -4.40625 L 1.96875 -12.296875 C 1.96875 -13.796875 2.429688 -14.90625 3.359375 -15.625 C 3.816406 -15.957031 4.289062 -16.21875 4.78125 -16.40625 C 5.269531 -16.601562 5.742188 -16.703125 6.203125 -16.703125 L 10.859375 -16.703125 C 11.304688 -16.703125 11.796875 -16.613281 12.328125 -16.4375 C 12.859375 -16.257812 13.359375 -16.023438 13.828125 -15.734375 C 14.265625 -15.421875 14.617188 -14.988281 14.890625 -14.4375 C 15.160156 -13.882812 15.296875 -13.226562 15.296875 -12.46875 L 15.296875 -8.71875 C 15.296875 -8.300781 15.171875 -7.925781 14.921875 -7.59375 C 14.671875 -7.257812 14.210938 -7.09375 13.546875 -7.09375 L 7.5625 -7.09375 C 6.894531 -7.09375 6.546875 -7.523438 6.515625 -8.390625 C 6.515625 -9.265625 6.863281 -9.703125 7.5625 -9.703125 L 12.265625 -9.703125 L 12.25 -12.265625 C 12.25 -12.734375 12.101562 -13.15625 11.8125 -13.53125 C 11.53125 -13.90625 11.046875 -14.09375 10.359375 -14.09375 L 6.890625 -14.09375 C 6.210938 -14.09375 5.726562 -13.90625 5.4375 -13.53125 C 5.15625 -13.15625 5.015625 -12.734375 5.015625 -12.265625 Z M 5.015625 -4.4375 " style="fill: rgb(250, 250, 250);"/>
      </g>
    </g>
  </g>
  <g fill="#000000" fill-opacity="1">
    <g transform="translate(283.437803, 130.241179)">
      <g>
        <path d="M 12.25 -14.078125 L 6.890625 -14.078125 C 6.140625 -14.078125 5.644531 -13.851562 5.40625 -13.40625 C 5.144531 -13.019531 5.015625 -12.566406 5.015625 -12.046875 L 5.015625 -4.078125 C 5.015625 -3.597656 5.160156 -3.234375 5.453125 -2.984375 C 5.753906 -2.734375 6.242188 -2.609375 6.921875 -2.609375 L 9.78125 -2.609375 C 10.445312 -2.609375 10.78125 -2.171875 10.78125 -1.296875 C 10.78125 -0.929688 10.703125 -0.625 10.546875 -0.375 C 10.390625 -0.125 10.132812 0 9.78125 0 L 6.421875 0 C 5.265625 0 4.234375 -0.296875 3.328125 -0.890625 C 2.421875 -1.441406 1.96875 -2.492188 1.96875 -4.046875 L 1.96875 -12.296875 C 1.96875 -13.054688 2.085938 -13.710938 2.328125 -14.265625 C 2.566406 -14.816406 2.945312 -15.269531 3.46875 -15.625 C 4.445312 -16.320312 5.425781 -16.671875 6.40625 -16.671875 L 12.25 -16.671875 L 12.25 -20.828125 C 12.25 -21.710938 12.753906 -22.15625 13.765625 -22.15625 C 14.785156 -22.15625 15.296875 -21.710938 15.296875 -20.828125 L 15.296875 -1.15625 C 15.296875 -0.269531 14.785156 0.171875 13.765625 0.171875 C 13.378906 0.171875 13.03125 0.101562 12.71875 -0.03125 C 12.40625 -0.175781 12.25 -0.488281 12.25 -0.96875 Z M 12.25 -14.078125 " style="fill: rgb(250, 250, 250);"/>
      </g>
    </g>
  </g>
  <g fill="#000000" fill-opacity="1">
    <g transform="translate(308.731374, 130.241179)">
      <g>
        <path d="M 12.71875 -12.65625 C 13.195312 -12.65625 13.691406 -12.550781 14.203125 -12.34375 C 14.722656 -12.144531 15.222656 -11.878906 15.703125 -11.546875 L 15.6875 -11.546875 C 16.164062 -11.210938 16.53125 -10.757812 16.78125 -10.1875 C 17.039062 -9.613281 17.171875 -8.960938 17.171875 -8.234375 L 17.171875 -4.4375 C 17.171875 -2.9375 16.675781 -1.816406 15.6875 -1.078125 C 15.195312 -0.722656 14.695312 -0.445312 14.1875 -0.25 C 13.6875 -0.0625 13.195312 0.03125 12.71875 0.03125 L 6.671875 0.03125 C 6.191406 0.03125 5.695312 -0.0625 5.1875 -0.25 C 4.6875 -0.445312 4.195312 -0.722656 3.71875 -1.078125 C 2.71875 -1.816406 2.21875 -2.9375 2.21875 -4.4375 L 2.21875 -6.265625 C 2.21875 -7.128906 2.757812 -7.5625 3.84375 -7.5625 C 4.957031 -7.5625 5.515625 -7.128906 5.515625 -6.265625 L 5.515625 -4.65625 C 5.515625 -4.175781 5.648438 -3.738281 5.921875 -3.34375 C 6.203125 -2.957031 6.6875 -2.765625 7.375 -2.765625 L 12.015625 -2.765625 C 12.703125 -2.765625 13.179688 -2.957031 13.453125 -3.34375 C 13.734375 -3.738281 13.875 -4.175781 13.875 -4.65625 L 13.875 -8 C 13.875 -8.46875 13.734375 -8.898438 13.453125 -9.296875 C 13.179688 -9.691406 12.703125 -9.890625 12.015625 -9.890625 L 6.671875 -9.890625 C 5.710938 -9.890625 4.726562 -10.238281 3.71875 -10.9375 C 2.71875 -11.71875 2.21875 -12.835938 2.21875 -14.296875 L 2.21875 -17.59375 C 2.21875 -18.332031 2.34375 -18.984375 2.59375 -19.546875 C 2.851562 -20.109375 3.226562 -20.566406 3.71875 -20.921875 L 3.6875 -20.921875 C 4.164062 -21.234375 4.660156 -21.488281 5.171875 -21.6875 C 5.691406 -21.894531 6.191406 -22 6.671875 -22 L 12.71875 -22 C 13.195312 -22 13.691406 -21.894531 14.203125 -21.6875 C 14.722656 -21.488281 15.222656 -21.234375 15.703125 -20.921875 L 15.6875 -20.921875 C 16.164062 -20.566406 16.53125 -20.109375 16.78125 -19.546875 C 17.039062 -18.984375 17.171875 -18.332031 17.171875 -17.59375 L 17.171875 -15.953125 C 17.171875 -15.085938 16.617188 -14.65625 15.515625 -14.65625 C 14.421875 -14.65625 13.875 -15.085938 13.875 -15.953125 L 13.875 -17.34375 C 13.875 -17.800781 13.734375 -18.222656 13.453125 -18.609375 C 13.179688 -19.003906 12.703125 -19.203125 12.015625 -19.203125 L 7.375 -19.203125 C 6.6875 -19.203125 6.203125 -19.003906 5.921875 -18.609375 C 5.648438 -18.222656 5.515625 -17.800781 5.515625 -17.34375 L 5.515625 -14.515625 C 5.515625 -14.035156 5.648438 -13.601562 5.921875 -13.21875 C 6.203125 -12.84375 6.6875 -12.65625 7.375 -12.65625 Z M 12.71875 -12.65625 " style="fill: rgb(250, 250, 250);"/>
      </g>
    </g>
  </g>
  <g fill="#000000" fill-opacity="1">
    <g transform="translate(328.04093, 130.241179)">
      <g>
        <path d="M 5.015625 -1.15625 C 5.015625 -0.269531 4.503906 0.171875 3.484375 0.171875 C 2.472656 0.171875 1.96875 -0.269531 1.96875 -1.15625 L 1.96875 -20.828125 C 1.96875 -21.710938 2.472656 -22.15625 3.484375 -22.15625 C 4.503906 -22.15625 5.015625 -21.710938 5.015625 -20.828125 L 5.015625 -16.671875 L 10.859375 -16.671875 C 11.796875 -16.671875 12.773438 -16.320312 13.796875 -15.625 C 14.796875 -14.925781 15.296875 -13.816406 15.296875 -12.296875 L 15.296875 -1.15625 C 15.296875 -0.269531 14.785156 0.171875 13.765625 0.171875 C 12.753906 0.171875 12.25 -0.269531 12.25 -1.15625 L 12.25 -12.046875 C 12.25 -12.523438 12.097656 -12.988281 11.796875 -13.4375 L 11.828125 -13.40625 C 11.585938 -13.851562 11.097656 -14.078125 10.359375 -14.078125 L 5.015625 -14.078125 Z M 5.015625 -1.15625 " style="fill: rgb(250, 250, 250);"/>
      </g>
    </g>
  </g>
  <g fill="#000000" fill-opacity="1">
    <g transform="translate(345.023363, 130.241179)">
      <g>
        <path d="M 5.09375 -1.15625 C 5.09375 -0.269531 4.585938 0.171875 3.578125 0.171875 C 2.535156 0.171875 2.015625 -0.269531 2.015625 -1.15625 L 2.015625 -15.453125 C 2.015625 -16.335938 2.535156 -16.78125 3.578125 -16.78125 C 4.585938 -16.78125 5.09375 -16.335938 5.09375 -15.453125 Z M 5.671875 -20.28125 C 5.671875 -19.6875 5.46875 -19.1875 5.0625 -18.78125 C 4.65625 -18.375 4.160156 -18.171875 3.578125 -18.171875 C 2.984375 -18.171875 2.476562 -18.375 2.0625 -18.78125 C 1.644531 -19.1875 1.4375 -19.6875 1.4375 -20.28125 C 1.4375 -20.882812 1.644531 -21.390625 2.0625 -21.796875 C 2.476562 -22.203125 2.984375 -22.40625 3.578125 -22.40625 C 4.160156 -22.40625 4.65625 -22.203125 5.0625 -21.796875 C 5.46875 -21.390625 5.671875 -20.882812 5.671875 -20.28125 Z M 5.671875 -20.28125 " style="fill: rgb(250, 250, 250);"/>
      </g>
    </g>
  </g>
  <g fill="#000000" fill-opacity="1">
    <g transform="translate(352.004712, 130.241179)">
      <g>
        <path d="M 5.015625 -4.4375 C 5.015625 -3.988281 5.15625 -3.570312 5.4375 -3.1875 C 5.726562 -2.800781 6.210938 -2.609375 6.890625 -2.609375 L 10.359375 -2.609375 C 11.046875 -2.609375 11.53125 -2.773438 11.8125 -3.109375 C 12.101562 -3.453125 12.25 -3.847656 12.25 -4.296875 L 12.25 -4.59375 C 12.25 -5.46875 12.753906 -5.90625 13.765625 -5.90625 C 14.785156 -5.90625 15.296875 -5.46875 15.296875 -4.59375 L 15.296875 -4.265625 C 15.296875 -3.492188 15.171875 -2.859375 14.921875 -2.359375 C 14.671875 -1.859375 14.296875 -1.421875 13.796875 -1.046875 C 12.816406 -0.347656 11.835938 0 10.859375 0 L 6.203125 0 C 5.222656 0 4.273438 -0.347656 3.359375 -1.046875 C 2.910156 -1.421875 2.566406 -1.890625 2.328125 -2.453125 C 2.085938 -3.015625 1.96875 -3.664062 1.96875 -4.40625 L 1.96875 -12.296875 C 1.96875 -13.796875 2.429688 -14.90625 3.359375 -15.625 C 3.816406 -15.957031 4.289062 -16.21875 4.78125 -16.40625 C 5.269531 -16.601562 5.742188 -16.703125 6.203125 -16.703125 L 10.859375 -16.703125 C 11.304688 -16.703125 11.796875 -16.613281 12.328125 -16.4375 C 12.859375 -16.257812 13.359375 -16.023438 13.828125 -15.734375 C 14.265625 -15.421875 14.617188 -14.988281 14.890625 -14.4375 C 15.160156 -13.882812 15.296875 -13.226562 15.296875 -12.46875 L 15.296875 -8.71875 C 15.296875 -8.300781 15.171875 -7.925781 14.921875 -7.59375 C 14.671875 -7.257812 14.210938 -7.09375 13.546875 -7.09375 L 7.5625 -7.09375 C 6.894531 -7.09375 6.546875 -7.523438 6.515625 -8.390625 C 6.515625 -9.265625 6.863281 -9.703125 7.5625 -9.703125 L 12.265625 -9.703125 L 12.25 -12.265625 C 12.25 -12.734375 12.101562 -13.15625 11.8125 -13.53125 C 11.53125 -13.90625 11.046875 -14.09375 10.359375 -14.09375 L 6.890625 -14.09375 C 6.210938 -14.09375 5.726562 -13.90625 5.4375 -13.53125 C 5.15625 -13.15625 5.015625 -12.734375 5.015625 -12.265625 Z M 5.015625 -4.4375 " style="fill: rgb(250, 250, 250);"/>
      </g>
    </g>
  </g>
  <g fill="#000000" fill-opacity="1">
    <g transform="translate(368.848616, 130.241179)">
      <g>
        <path d="M 5.125 -1.078125 C 5.125 -0.210938 4.613281 0.21875 3.59375 0.21875 C 2.5625 0.21875 2.046875 -0.210938 2.046875 -1.078125 L 2.046875 -20.9375 C 2.046875 -21.8125 2.5625 -22.25 3.59375 -22.25 C 4.613281 -22.25 5.125 -21.8125 5.125 -20.9375 Z M 5.125 -1.078125 " style="fill: rgb(250, 250, 250);"/>
      </g>
    </g>
  </g>
  <g fill="#000000" fill-opacity="1">
    <g transform="translate(375.829983, 130.241179)">
      <g>
        <path d="M 12.25 -14.078125 L 6.890625 -14.078125 C 6.140625 -14.078125 5.644531 -13.851562 5.40625 -13.40625 C 5.144531 -13.019531 5.015625 -12.566406 5.015625 -12.046875 L 5.015625 -4.078125 C 5.015625 -3.597656 5.160156 -3.234375 5.453125 -2.984375 C 5.753906 -2.734375 6.242188 -2.609375 6.921875 -2.609375 L 9.78125 -2.609375 C 10.445312 -2.609375 10.78125 -2.171875 10.78125 -1.296875 C 10.78125 -0.929688 10.703125 -0.625 10.546875 -0.375 C 10.390625 -0.125 10.132812 0 9.78125 0 L 6.421875 0 C 5.265625 0 4.234375 -0.296875 3.328125 -0.890625 C 2.421875 -1.441406 1.96875 -2.492188 1.96875 -4.046875 L 1.96875 -12.296875 C 1.96875 -13.054688 2.085938 -13.710938 2.328125 -14.265625 C 2.566406 -14.816406 2.945312 -15.269531 3.46875 -15.625 C 4.445312 -16.320312 5.425781 -16.671875 6.40625 -16.671875 L 12.25 -16.671875 L 12.25 -20.828125 C 12.25 -21.710938 12.753906 -22.15625 13.765625 -22.15625 C 14.785156 -22.15625 15.296875 -21.710938 15.296875 -20.828125 L 15.296875 -1.15625 C 15.296875 -0.269531 14.785156 0.171875 13.765625 0.171875 C 13.378906 0.171875 13.03125 0.101562 12.71875 -0.03125 C 12.40625 -0.175781 12.25 -0.488281 12.25 -0.96875 Z M 12.25 -14.078125 " style="fill: rgb(250, 250, 250);"/>
      </g>
    </g>
  </g>
  <g fill="#000000" fill-opacity="1">
    <g transform="translate(401.123562, 130.241179)">
      <g>
        <path d="M 10.828125 -16.671875 C 11.304688 -16.671875 11.800781 -16.566406 12.3125 -16.359375 C 12.820312 -16.160156 13.316406 -15.90625 13.796875 -15.59375 L 13.765625 -15.59375 C 14.242188 -15.25 14.613281 -14.789062 14.875 -14.21875 C 15.132812 -13.65625 15.265625 -13.003906 15.265625 -12.265625 L 15.265625 -4.40625 C 15.265625 -2.894531 14.765625 -1.773438 13.765625 -1.046875 C 12.785156 -0.347656 11.804688 0 10.828125 0 L 6.40625 0 C 5.914062 0 5.421875 -0.0820312 4.921875 -0.25 C 4.429688 -0.414062 3.945312 -0.679688 3.46875 -1.046875 C 2.46875 -1.753906 1.96875 -2.875 1.96875 -4.40625 L 1.96875 -12.265625 C 1.96875 -13.003906 2.097656 -13.65625 2.359375 -14.21875 C 2.617188 -14.789062 2.988281 -15.25 3.46875 -15.59375 L 3.4375 -15.59375 C 3.894531 -15.90625 4.378906 -16.160156 4.890625 -16.359375 C 5.410156 -16.566406 5.914062 -16.671875 6.40625 -16.671875 Z M 10.328125 -2.609375 C 11.015625 -2.609375 11.5 -2.800781 11.78125 -3.1875 C 12.070312 -3.570312 12.21875 -3.988281 12.21875 -4.4375 L 12.21875 -12.25 C 12.21875 -12.707031 12.070312 -13.125 11.78125 -13.5 C 11.5 -13.882812 11.015625 -14.078125 10.328125 -14.078125 L 6.890625 -14.078125 C 6.210938 -14.078125 5.726562 -13.882812 5.4375 -13.5 C 5.15625 -13.125 5.015625 -12.707031 5.015625 -12.25 L 5.015625 -4.4375 C 5.015625 -3.988281 5.15625 -3.570312 5.4375 -3.1875 C 5.726562 -2.800781 6.210938 -2.609375 6.890625 -2.609375 Z M 10.328125 -2.609375 " style="fill: rgb(250, 250, 250);"/>
      </g>
    </g>
  </g>
  <g fill="#000000" fill-opacity="1">
    <g transform="translate(417.912072, 130.241179)">
      <g>
        <path d="M 5.8125 -1.15625 C 5.8125 -0.269531 5.296875 0.171875 4.265625 0.171875 C 3.253906 0.171875 2.75 -0.269531 2.75 -1.15625 L 2.75 -14.078125 L 1.40625 -14.078125 C 0.75 -14.078125 0.398438 -14.507812 0.359375 -15.375 C 0.359375 -16.238281 0.707031 -16.671875 1.40625 -16.671875 L 2.75 -16.671875 L 2.75 -18 C 2.75 -18.757812 2.851562 -19.398438 3.0625 -19.921875 C 3.269531 -20.453125 3.613281 -20.859375 4.09375 -21.140625 L 4.09375 -21.109375 C 4.582031 -21.398438 5.078125 -21.628906 5.578125 -21.796875 C 6.085938 -21.960938 6.628906 -22.046875 7.203125 -22.046875 L 7.875 -22.046875 C 8.550781 -22.046875 8.890625 -21.613281 8.890625 -20.75 C 8.929688 -19.882812 8.59375 -19.453125 7.875 -19.453125 L 7.421875 -19.453125 C 7.066406 -19.453125 6.785156 -19.414062 6.578125 -19.34375 C 6.367188 -19.28125 6.207031 -19.179688 6.09375 -19.046875 C 5.976562 -18.921875 5.898438 -18.765625 5.859375 -18.578125 C 5.828125 -18.398438 5.8125 -18.203125 5.8125 -17.984375 L 5.8125 -16.671875 L 7.890625 -16.671875 C 8.609375 -16.671875 8.953125 -16.238281 8.921875 -15.375 C 8.921875 -14.507812 8.578125 -14.078125 7.890625 -14.078125 L 5.8125 -14.078125 Z M 5.8125 -1.15625 " style="fill: rgb(250, 250, 250);"/>
      </g>
    </g>
  </g>
  <g fill="#000000" fill-opacity="1">
    <g transform="translate(435.531689, 130.241179)">
      <g>
        <path d="M 9.609375 -1.109375 C 9.609375 -0.222656 9.054688 0.21875 7.953125 0.21875 C 6.859375 0.21875 6.3125 -0.222656 6.3125 -1.109375 L 6.3125 -19.203125 L 1.46875 -19.203125 C 0.800781 -19.203125 0.453125 -19.671875 0.421875 -20.609375 C 0.421875 -21.535156 0.769531 -22 1.46875 -22 L 14.46875 -22 C 15.164062 -22 15.492188 -21.535156 15.453125 -20.609375 C 15.453125 -19.671875 15.125 -19.203125 14.46875 -19.203125 L 9.609375 -19.203125 Z M 9.609375 -1.109375 " style="fill: rgb(250, 250, 250);"/>
      </g>
    </g>
  </g>
  <g fill="#000000" fill-opacity="1">
    <g transform="translate(451.239755, 130.241179)">
      <g>
        <path d="M 4.953125 -1.15625 C 4.953125 -0.269531 4.445312 0.171875 3.4375 0.171875 C 2.382812 0.171875 1.859375 -0.269531 1.859375 -1.15625 L 1.859375 -12.625 C 1.859375 -14.144531 2.3125 -15.203125 3.21875 -15.796875 C 4.125 -16.378906 5.164062 -16.671875 6.34375 -16.671875 L 9.5 -16.671875 C 10.1875 -16.671875 10.53125 -16.238281 10.53125 -15.375 C 10.5625 -14.507812 10.21875 -14.078125 9.5 -14.078125 L 6.5625 -14.078125 C 5.894531 -14.078125 5.457031 -13.945312 5.25 -13.6875 C 5.050781 -13.425781 4.953125 -13.066406 4.953125 -12.609375 Z M 4.953125 -1.15625 " style="fill: rgb(250, 250, 250);"/>
      </g>
    </g>
  </g>
  <g fill="#000000" fill-opacity="1">
    <g transform="translate(462.155047, 130.241179)">
      <g>
        <path d="M 15.296875 -4.40625 C 15.296875 -3.664062 15.164062 -3.007812 14.90625 -2.4375 C 14.644531 -1.863281 14.273438 -1.398438 13.796875 -1.046875 L 13.828125 -1.046875 C 13.359375 -0.734375 12.863281 -0.476562 12.34375 -0.28125 C 11.832031 -0.09375 11.335938 0 10.859375 0 L 6.40625 0 C 5.9375 0 5.4375 -0.09375 4.90625 -0.28125 C 4.382812 -0.476562 3.894531 -0.734375 3.4375 -1.046875 L 3.46875 -1.046875 C 2.988281 -1.398438 2.617188 -1.863281 2.359375 -2.4375 C 2.097656 -3.007812 1.96875 -3.664062 1.96875 -4.40625 L 1.96875 -15.515625 C 1.96875 -16.398438 2.472656 -16.84375 3.484375 -16.84375 C 4.503906 -16.84375 5.015625 -16.398438 5.015625 -15.515625 L 5.015625 -4.625 C 5.015625 -4.101562 5.144531 -3.648438 5.40625 -3.265625 C 5.644531 -2.828125 6.140625 -2.609375 6.890625 -2.609375 L 10.359375 -2.609375 C 11.097656 -2.609375 11.585938 -2.828125 11.828125 -3.265625 L 11.796875 -3.234375 C 12.097656 -3.679688 12.25 -4.144531 12.25 -4.625 L 12.25 -15.515625 C 12.25 -16.398438 12.753906 -16.84375 13.765625 -16.84375 C 14.785156 -16.84375 15.296875 -16.398438 15.296875 -15.515625 Z M 15.296875 -4.40625 " style="fill: rgb(250, 250, 250);"/>
      </g>
    </g>
  </g>
  <g fill="#000000" fill-opacity="1">
    <g transform="translate(478.943539, 130.241179)">
      <g>
        <path d="M 10.96875 -9.703125 C 11.425781 -9.703125 11.914062 -9.59375 12.4375 -9.375 C 12.96875 -9.164062 13.46875 -8.90625 13.9375 -8.59375 L 13.90625 -8.59375 C 14.382812 -8.238281 14.753906 -7.785156 15.015625 -7.234375 C 15.273438 -6.679688 15.40625 -6.015625 15.40625 -5.234375 L 15.40625 -4.40625 C 15.40625 -2.894531 14.90625 -1.773438 13.90625 -1.046875 C 13.425781 -0.679688 12.9375 -0.414062 12.4375 -0.25 C 11.9375 -0.0820312 11.445312 0 10.96875 0 L 6.265625 0 C 5.785156 0 5.296875 -0.0820312 4.796875 -0.25 C 4.296875 -0.414062 3.804688 -0.679688 3.328125 -1.046875 C 2.328125 -1.753906 1.828125 -2.875 1.828125 -4.40625 L 1.828125 -4.734375 C 1.828125 -5.523438 2.335938 -5.914062 3.359375 -5.90625 C 4.390625 -5.90625 4.90625 -5.515625 4.90625 -4.734375 L 4.90625 -4.4375 C 4.90625 -3.988281 5.039062 -3.570312 5.3125 -3.1875 C 5.59375 -2.800781 6.082031 -2.609375 6.78125 -2.609375 L 10.4375 -2.609375 C 11.144531 -2.609375 11.632812 -2.800781 11.90625 -3.1875 C 12.1875 -3.570312 12.328125 -3.988281 12.328125 -4.4375 L 12.328125 -5.203125 C 12.328125 -5.441406 12.296875 -5.671875 12.234375 -5.890625 C 12.171875 -6.117188 12.0625 -6.320312 11.90625 -6.5 C 11.757812 -6.675781 11.566406 -6.816406 11.328125 -6.921875 C 11.085938 -7.035156 10.789062 -7.09375 10.4375 -7.09375 L 6.40625 -7.09375 C 5.457031 -7.09375 4.46875 -7.425781 3.4375 -8.09375 C 2.457031 -8.71875 1.96875 -9.796875 1.96875 -11.328125 L 1.96875 -12.265625 C 1.96875 -13.003906 2.097656 -13.65625 2.359375 -14.21875 C 2.617188 -14.789062 2.988281 -15.25 3.46875 -15.59375 L 3.4375 -15.59375 C 3.894531 -15.90625 4.378906 -16.160156 4.890625 -16.359375 C 5.410156 -16.566406 5.914062 -16.671875 6.40625 -16.671875 L 10.828125 -16.671875 C 11.304688 -16.671875 11.800781 -16.566406 12.3125 -16.359375 C 12.820312 -16.160156 13.316406 -15.90625 13.796875 -15.59375 L 13.765625 -15.59375 C 14.242188 -15.25 14.613281 -14.789062 14.875 -14.21875 C 15.132812 -13.65625 15.265625 -13.003906 15.265625 -12.265625 L 15.265625 -12.015625 C 15.265625 -11.628906 15.132812 -11.347656 14.875 -11.171875 C 14.613281 -11.003906 14.234375 -10.910156 13.734375 -10.890625 C 12.722656 -10.867188 12.21875 -11.242188 12.21875 -12.015625 L 12.21875 -12.25 C 12.21875 -12.707031 12.070312 -13.125 11.78125 -13.5 C 11.5 -13.882812 11.015625 -14.078125 10.328125 -14.078125 L 6.890625 -14.078125 C 6.210938 -14.078125 5.726562 -13.882812 5.4375 -13.5 C 5.15625 -13.125 5.015625 -12.707031 5.015625 -12.25 L 5.015625 -11.578125 C 5.015625 -11.097656 5.15625 -10.664062 5.4375 -10.28125 C 5.726562 -9.894531 6.210938 -9.703125 6.890625 -9.703125 Z M 10.96875 -9.703125 " style="fill: rgb(250, 250, 250);"/>
      </g>
    </g>
  </g>
  <g fill="#000000" fill-opacity="1">
    <g transform="translate(495.981367, 130.241179)">
      <g>
        <path d="M 5.59375 -14.078125 L 5.59375 -3.984375 C 5.59375 -3.503906 5.691406 -3.132812 5.890625 -2.875 C 6.097656 -2.625 6.535156 -2.5 7.203125 -2.5 L 7.921875 -2.5 C 8.640625 -2.5 8.984375 -2.070312 8.953125 -1.21875 C 8.953125 -0.351562 8.609375 0.078125 7.921875 0.078125 L 7.015625 0.078125 C 6.421875 0.078125 5.863281 0 5.34375 -0.15625 C 4.832031 -0.3125 4.332031 -0.535156 3.84375 -0.828125 L 3.84375 -0.796875 C 2.945312 -1.390625 2.5 -2.445312 2.5 -3.96875 L 2.5 -14.078125 L 1.40625 -14.078125 C 0.75 -14.078125 0.398438 -14.507812 0.359375 -15.375 C 0.359375 -16.238281 0.707031 -16.671875 1.40625 -16.671875 L 2.5 -16.671875 L 2.5 -19.640625 C 2.5 -20.523438 3.023438 -20.96875 4.078125 -20.96875 C 5.085938 -20.96875 5.59375 -20.523438 5.59375 -19.640625 L 5.59375 -16.671875 L 7.890625 -16.671875 C 8.609375 -16.671875 8.953125 -16.238281 8.921875 -15.375 C 8.921875 -14.507812 8.578125 -14.078125 7.890625 -14.078125 Z M 5.59375 -14.078125 " style="fill: rgb(250, 250, 250);"/>
      </g>
    </g>
  </g>
  <g clip-path="url(#78111ef395)">
    <path d="M 114.300781 30.164062 C 112.621094 28.25 109.828125 28.753906 107.585938 28.242188 C 91.328125 25.558594 76.054688 18.894531 61.464844 11.429688 C 60.773438 11.097656 60.046875 10.8125 59.320312 10.558594 L 58.269531 10.558594 C 55.734375 11.320312 53.492188 12.769531 51.105469 13.875 C 38.308594 20.179688 24.890625 25.609375 10.785156 28.09375 C 8.753906 28.503906 6.640625 28.472656 4.65625 29.070312 C 3.078125 29.765625 1.921875 31.421875 2.011719 33.175781 C 1.847656 42.933594 2.203125 52.695312 2.960938 62.421875 C 4.0625 74.800781 5.835938 87.25 9.988281 99.011719 C 12 104.46875 14.5625 109.828125 18.417969 114.230469 C 28.945312 126.730469 42.023438 136.972656 56.335938 144.769531 C 56.945312 145.078125 57.582031 145.324219 58.234375 145.519531 L 59.148438 145.519531 C 61.699219 144.796875 63.808594 143.09375 66.144531 141.890625 C 77.230469 135.308594 87.375 127.113281 96.109375 117.609375 C 98.75 114.613281 101.460938 111.613281 103.347656 108.074219 C 107.742188 100.242188 110.0625 91.453125 111.792969 82.703125 C 114.78125 66.753906 115.550781 50.464844 115.460938 34.269531 C 115.511719 32.820312 115.402344 31.234375 114.300781 30.164062 Z M 108.132812 79.121094 C 106.34375 88.945312 104.023438 98.953125 98.757812 107.554688 C 94.078125 114.347656 88.050781 120.070312 81.878906 125.476562 C 74.761719 131.570312 66.9375 136.789062 58.726562 141.285156 C 44.324219 133.441406 31.128906 123.128906 20.71875 110.382812 C 15.351562 103.496094 12.8125 94.929688 10.804688 86.558594 C 6.925781 69 6.007812 50.917969 6.257812 32.976562 C 24.84375 30.871094 42.207031 23.199219 58.730469 14.800781 C 75.25 23.210938 92.636719 30.863281 111.226562 32.964844 C 111.460938 48.394531 110.722656 63.886719 108.132812 79.121094 Z M 108.132812 79.121094 " fill-opacity="1" fill-rule="nonzero" style="fill: rgb(250, 250, 250);"/>
  </g>
  <path d="M 14.605469 40.300781 C 14.917969 56.902344 15.867188 73.683594 20.242188 89.773438 C 21.953125 95.703125 24.15625 101.730469 28.378906 106.363281 C 36.867188 116.542969 47.394531 124.847656 58.734375 131.609375 C 70.800781 124.414062 81.945312 115.4375 90.710938 104.378906 C 94.863281 98.667969 96.828125 91.726562 98.453125 84.9375 C 101.722656 70.308594 102.605469 55.257812 102.847656 40.304688 C 87.40625 37.316406 72.746094 31.285156 58.730469 24.261719 C 44.707031 31.28125 30.050781 37.324219 14.605469 40.300781 Z M 14.605469 40.300781 " fill-opacity="1" fill-rule="nonzero" style="fill: rgb(250, 250, 250);"/>
  <g fill="#000000" fill-opacity="1">
    <g transform="translate(522.491143, 101.548634)">
      <g>
        <path d="M 13.734375 -12.140625 C 13.734375 -10.921875 14.125 -9.78125 14.90625 -8.71875 C 15.6875 -7.65625 17.015625 -7.125 18.890625 -7.125 L 28.375 -7.125 C 30.238281 -7.125 31.5625 -7.59375 32.34375 -8.53125 C 33.132812 -9.46875 33.53125 -10.546875 33.53125 -11.765625 L 33.53125 -12.59375 C 33.53125 -14.96875 34.921875 -16.15625 37.703125 -16.15625 C 40.484375 -16.15625 41.875 -14.96875 41.875 -12.59375 L 41.875 -11.6875 C 41.875 -9.5625 41.53125 -7.816406 40.84375 -6.453125 C 40.164062 -5.085938 39.144531 -3.894531 37.78125 -2.875 C 35.09375 -0.957031 32.410156 0 29.734375 0 L 17 0 C 14.3125 0 11.703125 -0.957031 9.171875 -2.875 C 7.960938 -3.894531 7.03125 -5.175781 6.375 -6.71875 C 5.71875 -8.257812 5.390625 -10.039062 5.390625 -12.0625 L 5.390625 -33.6875 C 5.390625 -37.78125 6.648438 -40.8125 9.171875 -42.78125 C 10.441406 -43.695312 11.742188 -44.421875 13.078125 -44.953125 C 14.421875 -45.484375 15.726562 -45.75 17 -45.75 L 29.734375 -45.75 C 30.953125 -45.75 32.289062 -45.503906 33.75 -45.015625 C 35.21875 -44.535156 36.585938 -43.894531 37.859375 -43.09375 C 39.066406 -42.226562 40.035156 -41.035156 40.765625 -39.515625 C 41.503906 -38.003906 41.875 -36.210938 41.875 -34.140625 L 41.875 -23.890625 C 41.875 -22.734375 41.53125 -21.695312 40.84375 -20.78125 C 40.164062 -19.875 38.914062 -19.421875 37.09375 -19.421875 L 20.703125 -19.421875 C 18.890625 -19.421875 17.929688 -20.609375 17.828125 -22.984375 C 17.828125 -25.359375 18.785156 -26.546875 20.703125 -26.546875 L 33.609375 -26.546875 L 33.53125 -33.609375 C 33.53125 -34.867188 33.132812 -36.015625 32.34375 -37.046875 C 31.5625 -38.085938 30.238281 -38.609375 28.375 -38.609375 L 18.890625 -38.609375 C 17.015625 -38.609375 15.6875 -38.085938 14.90625 -37.046875 C 14.125 -36.015625 13.734375 -34.867188 13.734375 -33.609375 Z M 13.734375 -12.140625 " style="fill: rgb(250, 250, 250);"/>
      </g>
    </g>
  </g>
  <g fill="#000000" fill-opacity="1">
    <g transform="translate(568.609869, 101.548634)">
      <g>
        <path d="M 13.578125 -3.1875 C 13.578125 -0.757812 12.1875 0.453125 9.40625 0.453125 C 6.519531 0.453125 5.078125 -0.757812 5.078125 -3.1875 L 5.078125 -34.59375 C 5.078125 -38.738281 6.316406 -41.617188 8.796875 -43.234375 C 11.273438 -44.859375 14.132812 -45.671875 17.375 -45.671875 L 26.015625 -45.671875 C 27.890625 -45.671875 28.828125 -44.484375 28.828125 -42.109375 C 28.929688 -39.722656 27.992188 -38.53125 26.015625 -38.53125 L 17.984375 -38.53125 C 16.160156 -38.53125 14.96875 -38.175781 14.40625 -37.46875 C 13.851562 -36.757812 13.578125 -35.773438 13.578125 -34.515625 Z M 13.578125 -3.1875 " style="fill: rgb(250, 250, 250);"/>
      </g>
    </g>
  </g>
  <g fill="#000000" fill-opacity="1">
    <g transform="translate(300.420228, 130.241179)">
      <g/>
    </g>
  </g>
  <g fill="#000000" fill-opacity="1">
    <g transform="translate(392.812416, 130.241179)">
      <g/>
    </g>
  </g>
  <g fill="#000000" fill-opacity="1">
    <g transform="translate(427.220543, 130.241179)">
      <g/>
    </g>
  </g>
  <g fill="#ffffff" fill-opacity="1">
    <g transform="translate(23.544856, 98.791106)">
      <g>
        <path d="M 26.0625 -52.890625 L 9.421875 -1.828125 L 9.421875 -1.90625 C 9.117188 -1.144531 8.703125 -0.519531 8.171875 -0.03125 C 7.640625 0.445312 6.992188 0.6875 6.234375 0.6875 C 5.828125 0.6875 5.429688 0.644531 5.046875 0.5625 C 4.671875 0.488281 4.28125 0.398438 3.875 0.296875 L 3.953125 0.296875 C 1.066406 -0.609375 0.00390625 -2.226562 0.765625 -4.5625 L 18.078125 -57.21875 C 18.335938 -58.03125 18.78125 -58.710938 19.40625 -59.265625 C 20.039062 -59.828125 20.789062 -60.15625 21.65625 -60.25 C 22.519531 -60.40625 23.351562 -60.519531 24.15625 -60.59375 C 24.96875 -60.675781 25.601562 -60.71875 26.0625 -60.71875 C 26.519531 -60.71875 27.148438 -60.675781 27.953125 -60.59375 C 28.765625 -60.519531 29.601562 -60.429688 30.46875 -60.328125 C 31.175781 -60.234375 31.867188 -59.851562 32.546875 -59.1875 C 33.234375 -58.53125 33.753906 -57.875 34.109375 -57.21875 C 36.953125 -48.5 39.828125 -39.71875 42.734375 -30.875 C 45.648438 -22.039062 48.523438 -13.269531 51.359375 -4.5625 C 52.066406 -2.226562 51.003906 -0.609375 48.171875 0.296875 C 47.765625 0.398438 47.394531 0.488281 47.0625 0.5625 C 46.738281 0.644531 46.375 0.6875 45.96875 0.6875 C 45.257812 0.6875 44.613281 0.445312 44.03125 -0.03125 C 43.445312 -0.519531 43.03125 -1.144531 42.78125 -1.90625 L 42.78125 -1.828125 Z M 31.765625 -18.234375 C 31.765625 -16.617188 31.191406 -15.238281 30.046875 -14.09375 C 28.910156 -12.957031 27.53125 -12.390625 25.90625 -12.390625 C 24.289062 -12.390625 22.925781 -12.957031 21.8125 -14.09375 C 20.695312 -15.238281 20.140625 -16.617188 20.140625 -18.234375 C 20.140625 -19.859375 20.695312 -21.238281 21.8125 -22.375 C 22.925781 -23.519531 24.289062 -24.09375 25.90625 -24.09375 C 27.53125 -24.09375 28.910156 -23.519531 30.046875 -22.375 C 31.191406 -21.238281 31.765625 -19.859375 31.765625 -18.234375 Z M 31.765625 -18.234375 " style="fill: rgb(254, 23, 23);"/>
      </g>
    </g>
  </g>
  <g fill="#ffffff" fill-opacity="1" transform="matrix(1, 0, 0, 1, -0.6651880145072937, 0)">
    <g transform="translate(75.672652, 98.791106)">
      <g>
        <path d="M 15.421875 -3.1875 C 15.421875 -0.757812 13.898438 0.453125 10.859375 0.453125 C 7.867188 0.453125 6.375 -0.757812 6.375 -3.1875 L 6.375 -57.0625 C 6.375 -59.5 7.867188 -60.71875 10.859375 -60.71875 C 13.898438 -60.71875 15.421875 -59.5 15.421875 -57.0625 Z M 15.421875 -3.1875 " style="fill: rgb(254, 23, 23);"/>
      </g>
    </g>
  </g>
</svg>